<?xml version="1.0" encoding="utf-8"?>
<!-- Generator: Adobe Illustrator 26.2.0, SVG Export Plug-In . SVG Version: 6.00 Build 0)  -->
<svg version="1.1" id="Layer_1" xmlns="http://www.w3.org/2000/svg" xmlns:xlink="http://www.w3.org/1999/xlink" x="0px" y="0px"
	 viewBox="0 0 200 200" style="enable-background:new 0 0 200 200;" xml:space="preserve">
<style type="text/css">
	.st0{fill:#1D1D1B;}
</style>
<g>
	<g>
		<path class="st0" d="M164.18,95.08H35.82c-0.83,0-1.5-0.67-1.5-1.5l0,0c0-0.83,0.67-1.5,1.5-1.5h128.36c0.83,0,1.5,0.67,1.5,1.5
			l0,0C165.68,94.41,165.01,95.08,164.18,95.08z"/>
	</g>
	<g>
		<path class="st0" d="M164.18,107.92H35.82c-0.83,0-1.5-0.67-1.5-1.5l0,0c0-0.83,0.67-1.5,1.5-1.5h128.36c0.83,0,1.5,0.67,1.5,1.5
			l0,0C165.68,107.24,165.01,107.92,164.18,107.92z"/>
	</g>
</g>
</svg>
