<?xml version="1.0" encoding="UTF-8"?>
<svg id="Layer_1" data-name="Layer 1" xmlns="http://www.w3.org/2000/svg" viewBox="0 0 16 16">
  <defs>
    <style>
      .cls-1 {
        fill: #ff4f00;
        stroke-width: 0px;
      }
    </style>
  </defs>
  <path class="cls-1" d="M11.33,2.45v2.73h0s-.08-.13-.08-.13h0c-.24-.39-.53-.75-.86-1.06-.32-.3-.67-.57-1.05-.79-.82-.48-1.77-.75-2.79-.75-3.06,0-5.55,2.48-5.55,5.55s2.48,5.55,5.55,5.55c1.38,0,2.64-.5,3.62-1.34l-1.99-3.26c-.33.56-.93.93-1.62.93-1.04,0-1.88-.84-1.88-1.88s.84-1.88,1.88-1.88c.5,0,.96.2,1.3.52.11.11.21.23.29.36l.02.04h0s2.71,4.44,2.71,4.44h0s.39.65.39.65l.32.52v.02s.05.06.07.09c.01.02.02.03.04.05,0,0,.01.02.02.02,0,0,0,0,0,.01,0,.01.02.02.02.03,0,.01.02.02.03.03,0,.01.02.02.03.03.02.02.04.04.06.06.06.06.13.12.2.17.05.03.09.07.14.1.06.04.12.07.18.1.16.07.32.12.49.15.02,0,.04,0,.05,0,0,0,0,0,0,0,.02,0,.03,0,.05,0,0,0,.02,0,.02,0,0,0,.02,0,.02,0,.01,0,.02,0,.04,0,.02,0,.03,0,.05,0,.02,0,.03,0,.05,0s.03,0,.05,0c.02,0,.03,0,.05,0,.02,0,.03,0,.05,0,0,0,0,0,0,0,.03,0,.06,0,.09,0,.02,0,.03,0,.05,0,.01,0,.03,0,.04,0,0,0,.01,0,.02,0,.02,0,.04,0,.06-.01.01,0,.02,0,.04,0,.01,0,.02,0,.03,0,.01,0,.02,0,.03,0,.03,0,.06-.02.09-.03,0,0,.01,0,.02,0,.02,0,.03-.01.05-.02,0,0,0,0,0,0,.02,0,.04-.01.05-.02t0,0s.04-.02.06-.03c.02,0,.04-.02.06-.03.02,0,.04-.02.06-.03,0,0,0,0,0,0,.02-.01.04-.02.06-.03h0s.07-.04.1-.07c0,0,0,0,0,0,.02-.01.03-.02.05-.03.01-.01.03-.02.04-.03,0,0,.02-.01.03-.02.02-.02.04-.03.06-.05.01,0,.02-.02.03-.03.06-.06.12-.13.18-.2,0-.01.02-.02.03-.03,0,0,0,0,0,0,0-.01.02-.02.03-.04l.03-.04s.02-.03.03-.05c0-.01.01-.02.02-.03,0,0,.01-.02.02-.03,0,0,0,0,0,0,0-.01.01-.02.02-.03,0,0,0,0,0,0,.02-.03.03-.06.05-.09.02-.05.05-.11.07-.16.04-.11.07-.22.09-.33,0-.02,0-.03,0-.05,0-.02,0-.03,0-.05,0,0,0-.02,0-.03,0,0,0-.02,0-.02,0-.01,0-.02,0-.04,0-.02,0-.03,0-.05,0-.02,0-.03,0-.05V2.45h-3.67Z"/>
</svg>