<?xml version="1.0" encoding="UTF-8"?>
<svg id="Layer_1" data-name="Layer 1" xmlns="http://www.w3.org/2000/svg" viewBox="0 0 500 396.26">
  <defs>
    <style>
      .cls-1 {
        fill: #ff4f00;
        stroke-width: 0px;
      }
    </style>
  </defs>
  <path class="cls-1" d="M378,364.1c.31.51.63,1.02.95,1.53-.16-.25-.32-.5-.48-.76l-.47-.77Z"/>
  <path class="cls-1" d="M380.67,368.23c-.44-.62-.86-1.26-1.28-1.9.42.64.84,1.28,1.28,1.9Z"/>
  <path class="cls-1" d="M379.39,366.33c-.15-.23-.29-.47-.44-.7.15.23.29.47.44.7Z"/>
  <path class="cls-1" d="M406.68,390.11c5.58,2.59,11.48,4.39,17.53,5.35-6.17-.96-12.06-2.78-17.53-5.35Z"/>
  <path class="cls-1" d="M468.6,386.65c1.25-.76,2.46-1.56,3.64-2.39-1.19.85-2.4,1.65-3.64,2.4h0Z"/>
  <path class="cls-1" d="M492.08,361.95c.6-1.1,1.16-2.22,1.69-3.35-.52,1.13-1.09,2.25-1.69,3.35Z"/>
  <path class="cls-1" d="M493.77,358.6c.88-1.87,1.67-3.78,2.37-5.72-.69,1.95-1.48,3.86-2.37,5.72Z"/>
  <path class="cls-1" d="M496.14,352.88c1.39-3.88,2.42-7.89,3.06-11.96-.64,4.13-1.67,8.13-3.06,11.96Z"/>
  <path class="cls-1" d="M384.85,373.6c.35.4.7.79,1.05,1.18-.38-.39-.72-.78-1.05-1.18Z"/>
  <path class="cls-1" d="M391.44,380.2c.06.05.12.1.18.15-.06-.05-.12-.1-.18-.15Z"/>
  <path class="cls-1" d="M393.29,381.75c.63.51,1.26,1.01,1.91,1.49-.65-.49-1.28-.98-1.91-1.49Z"/>
  <path class="cls-1" d="M391.62,380.36c.55.47,1.1.94,1.67,1.39-.56-.45-1.12-.92-1.67-1.39Z"/>
  <path class="cls-1" d="M388.07,377.06c1.08,1.08,2.21,2.13,3.37,3.14-1.94-1.68-3.8-3.48-5.54-5.42.7.78,1.43,1.54,2.17,2.28Z"/>
  <path class="cls-1" d="M395.2,383.24c1.62,1.21,3.3,2.35,5.03,3.4-1.73-1.04-3.4-2.17-5.03-3.4Z"/>
  <path class="cls-1" d="M434.43,396.26c.57,0,1.13-.01,1.69-.02-1.13.04-2.26.04-3.38,0,.56.01,1.12.02,1.69.02Z"/>
  <path class="cls-1" d="M439.5,396.07c1.1-.09,2.19-.2,3.28-.34-1.09.15-2.19.27-3.28.34Z"/>
  <path class="cls-1" d="M486.01,371.18c-1.92,2.46-4.04,4.8-6.35,6.98,2.29-2.17,4.41-4.51,6.35-6.98Z"/>
  <path class="cls-1" d="M500,330.08v.62c0,.57-.01,1.13-.02,1.69.02-.77.03-1.54.02-2.31Z"/>
  <path class="cls-1" d="M368.86,0v97.52l-.1-.17-2.77-4.54-.17-.27c-8.69-13.77-19.02-26.38-30.72-37.58-11.3-10.81-23.87-20.3-37.47-28.21C268.39,9.74,234.4,0,198.13,0,88.7,0,0,88.7,0,198.13s88.7,198.13,198.13,198.13c49.33,0,94.46-18.03,129.14-47.87l-71.2-116.6c-11.61,19.94-33.21,33.34-57.94,33.34-37,0-67-30-67-67s30-67,67-67c17.97,0,34.28,7.07,46.32,18.59,3.98,3.81,7.49,8.1,10.44,12.8l.82,1.34.16.26,96.63,158.22h0s14.09,23.08,14.09,23.08l11.41,18.68.47.77c.7,1.15,1.43,2.27,2.2,3.36.42.62.86,1.23,1.31,1.82.22.29.45.59.68.88.09.13.19.26.3.39.29.36.58.72.88,1.08.31.4.65.8,1.01,1.2.35.4.7.79,1.05,1.18.7.78,1.43,1.54,2.17,2.28,2.22,2.22,4.61,4.29,7.13,6.18,1.62,1.21,3.3,2.35,5.03,3.4,2.09,1.29,4.24,2.44,6.45,3.47,5.58,2.59,11.48,4.39,17.53,5.35.62.1,1.25.19,1.87.27.08.01.16.02.24.03.56.07,1.12.13,1.68.18.29.04.57.06.85.08.29.03.59.06.88.07.44.04.88.06,1.33.08.55.03,1.11.05,1.68.07.56.01,1.12.02,1.69.02s1.13-.01,1.69-.02c.57-.02,1.13-.04,1.68-.07.56-.02,1.11-.06,1.67-.1.01.02.02.01.03,0,1.1-.09,2.19-.2,3.28-.34.55-.07,1.09-.14,1.64-.23.48-.07.96-.15,1.44-.23.24-.03.47-.07.7-.13.75-.14,1.49-.29,2.23-.46.45-.09.89-.19,1.33-.31.39-.09.78-.19,1.17-.3.37-.09.73-.19,1.09-.3,1.12-.31,2.24-.66,3.35-1.05.26-.09.52-.18.78-.28.6-.21,1.2-.43,1.8-.67.06-.02.11-.04.16-.06.65-.25,1.29-.52,1.93-.8t.02-.01c.7-.3,1.39-.61,2.07-.94.69-.32,1.38-.66,2.06-1.02.67-.35,1.34-.71,2.01-1.08.01-.01.03-.02.05-.03.67-.38,1.33-.77,1.99-1.17h0c1.25-.77,2.46-1.57,3.64-2.4.05-.03.1-.07.15-.1.56-.4,1.12-.81,1.66-1.22.51-.39,1.02-.78,1.51-1.19.3-.23.6-.48.9-.73.7-.58,1.38-1.18,2.05-1.79.39-.35.78-.71,1.15-1.07,2.29-2.17,4.41-4.51,6.35-6.98.32-.41.64-.82.95-1.23.02-.01.02-.02.02-.03.31-.42.62-.84.92-1.27l.9-1.29c.4-.59.79-1.19,1.17-1.8.25-.38.48-.77.71-1.16.19-.31.38-.63.56-.95.06-.09.11-.18.16-.28.22-.38.44-.78.65-1.17.01-.01.02-.03.03-.05.6-1.1,1.16-2.22,1.69-3.35.88-1.87,1.67-3.78,2.37-5.72,1.39-3.88,2.42-7.89,3.06-11.96.1-.63.19-1.25.27-1.87.08-.63.15-1.25.21-1.88.03-.3.06-.61.08-.92.03-.28.06-.57.07-.85.04-.44.06-.88.08-1.33.03-.55.05-1.11.07-1.68.01-.56.02-1.12.02-1.69V0h-131.14Z"/>
</svg>